<svg version="1.1" id="Layer_1" xmlns="http://www.w3.org/2000/svg" xmlns:xlink="http://www.w3.org/1999/xlink" x="0px" y="0px"
	 width="100%" viewBox="0 0 1024 1024" enable-background="new 0 0 1024 1024" xml:space="preserve">
<path fill="#000000" opacity="1.000000" stroke="none" 
	d="
M178.835083,549.000000 
	C178.843048,472.511230 178.946487,396.522186 178.728439,320.534058 
	C178.703415,311.810516 181.796417,306.552704 189.441010,302.225464 
	C250.759094,267.516174 311.861084,232.425385 373.062103,197.509048 
	C416.610779,172.663727 460.251526,147.979416 503.741913,123.032738 
	C510.055176,119.411362 515.311157,119.237404 521.816833,122.984024 
	C568.439941,149.834335 615.279114,176.308960 662.011658,202.969696 
	C720.316833,236.232559 778.539001,269.641449 836.930542,302.751801 
	C843.980286,306.749329 846.799011,311.339966 846.677917,319.795837 
	C846.198547,353.265137 846.719299,386.747864 846.753174,420.225739 
	C846.772156,439.018585 846.453430,457.811859 846.482727,476.604614 
	C846.533875,509.414673 847.099609,542.228149 846.768311,575.033325 
	C846.463806,605.191833 846.428223,635.347046 846.524353,665.503662 
	C846.541077,670.747498 843.878052,673.853027 839.750916,676.254272 
	C816.283203,689.908447 792.832275,703.591736 769.342224,717.207336 
	C718.475281,746.691406 667.603699,776.167542 616.703369,805.594116 
	C584.981201,823.933289 553.159729,842.101196 521.488403,860.527344 
	C515.450745,864.039917 510.229675,863.814453 504.231598,860.338074 
	C458.837891,834.028564 413.289276,807.986694 367.863159,781.732910 
	C308.302673,747.310120 248.865570,712.673340 189.217529,678.403381 
	C181.832733,674.160522 178.642441,669.116455 178.724335,660.479919 
	C179.075150,623.489624 178.850128,586.493774 178.835083,549.000000 
M356.820343,321.270538 
	C353.039124,320.367493 350.874878,316.546112 346.523987,315.464752 
	C299.543915,425.012054 252.621948,534.423889 205.516388,644.263794 
	C207.320389,644.496094 207.963715,644.609192 208.611847,644.656494 
	C210.399826,644.787048 212.535843,644.328857 213.366318,646.509583 
	C214.134491,648.526794 212.535858,649.890137 211.501511,651.380249 
	C210.246643,653.188049 207.792984,654.096802 207.172989,656.872375 
	C278.137451,667.622070 348.765411,678.320740 419.393372,689.019409 
	C419.565369,688.559082 419.737366,688.098694 419.909332,687.638306 
	C385.811279,641.939819 351.066376,596.718018 316.411896,550.451721 
	C319.805878,549.883057 320.862335,551.040527 321.946930,552.032654 
	C328.214752,557.766357 334.541382,563.439087 340.696808,569.291687 
	C378.386658,605.127258 409.864075,646.353882 442.308228,686.730408 
	C445.082428,690.182861 447.846497,691.738220 452.336487,691.720093 
	C492.497253,691.557861 532.659302,691.535400 572.819824,691.718384 
	C577.732239,691.740723 580.798584,689.938599 583.716187,686.257080 
	C602.852966,662.109375 622.364441,638.265991 642.328491,614.793335 
	C661.137878,592.678223 681.295410,571.876709 702.751282,552.328552 
	C704.267456,550.947144 705.628784,549.052185 709.621277,549.871948 
	C675.151123,596.544495 640.451843,642.158630 605.692749,687.728760 
	C605.944519,688.084412 606.196228,688.440002 606.447998,688.795593 
	C677.051086,678.182312 747.654175,667.569031 819.261536,656.804749 
	C816.956909,653.763489 815.555664,651.929993 814.172119,650.083252 
	C813.224548,648.818542 811.368347,647.694885 812.783142,645.835510 
	C813.933533,644.323486 815.760498,644.669800 817.434570,644.902283 
	C818.376282,645.033142 819.146118,646.058044 820.836121,645.108704 
	C773.618835,535.045105 726.378174,424.926941 678.993896,314.474091 
	C673.290283,319.033234 667.547180,321.795380 667.505432,329.225952 
	C667.493103,331.431763 665.347351,333.211792 663.363831,334.621216 
	C661.751221,335.767090 660.264465,337.132324 658.885864,338.558807 
	C647.889282,349.937408 636.945801,361.367218 625.946533,372.743164 
	C624.423706,374.318176 622.967529,376.297821 620.449036,375.787842 
	C619.518250,374.091248 620.394165,373.220734 621.072571,372.285797 
	C624.983948,366.895142 629.032959,361.597382 632.764282,356.084717 
	C638.829590,347.123932 646.367615,339.153778 651.426392,329.564087 
	C654.627869,323.495056 657.492371,317.982391 666.480774,320.464020 
	C661.662781,314.850128 669.004944,312.917786 668.512756,308.768219 
	C564.710327,308.768219 460.885345,308.768219 356.872223,308.768219 
	C357.143829,313.025055 363.411255,316.172150 357.927185,320.944550 
	C357.788879,321.061157 357.650604,321.177795 356.820343,321.270538 
M556.521301,185.978546 
	C544.460754,173.922287 532.400146,161.866013 519.924011,149.394333 
	C517.252930,157.331833 516.811584,164.838974 513.393250,172.710800 
	C508.756287,165.100372 509.231750,157.063660 505.644592,149.204956 
	C459.209351,196.426758 413.222290,243.192795 367.669495,289.517212 
	C367.560059,289.507935 368.693237,289.687286 369.826447,289.687805 
	C414.823517,289.708344 459.820587,289.710449 504.817657,289.725586 
	C507.013000,289.726318 509.081818,289.769379 510.497833,287.507965 
	C511.544403,285.836548 513.587280,285.291382 514.569763,287.157532 
	C516.252625,290.354034 518.942261,289.697235 521.490601,289.699097 
	C565.987793,289.731293 610.484924,289.737427 654.982056,289.698517 
	C656.508423,289.697174 658.266602,290.384216 658.353577,290.060791 
	C624.579407,255.530106 590.805176,220.999420 556.521301,185.978546 
M330.972595,302.556091 
	C332.434265,296.567780 335.793457,292.033966 340.257599,287.661865 
	C374.537659,254.088531 408.533722,220.225311 442.653076,186.487610 
	C447.751129,181.446564 453.032227,176.590607 458.228638,171.649033 
	C457.894958,171.295639 457.561279,170.942230 457.227600,170.588837 
	C381.086426,214.087494 304.945251,257.586151 228.804062,301.084839 
	C228.891968,301.290619 228.979858,301.496399 229.067764,301.702179 
	C261.685455,298.370087 294.303131,295.037994 327.743866,291.621796 
	C325.048218,298.342010 321.224579,302.901337 317.798920,307.748444 
	C315.997345,310.297638 313.958008,311.726349 310.939026,312.026794 
	C293.398621,313.772491 275.862244,315.558289 258.321472,317.300110 
	C240.609985,319.058868 222.892685,320.759430 205.186050,322.565155 
	C203.799683,322.706512 202.191635,322.818817 200.936646,324.531464 
	C224.421005,364.302551 245.495895,405.571503 269.925507,446.336548 
	C275.727814,432.757935 280.898529,420.673828 286.056274,408.584229 
	C301.016113,373.519135 316.763367,338.787750 330.972595,302.556091 
M590.694519,193.803528 
	C619.233704,222.041504 647.553223,250.507095 676.435364,278.389801 
	C686.097656,287.717773 692.883545,298.042297 697.980591,310.572174 
	C714.159485,350.344116 731.514404,389.638550 748.514465,429.074585 
	C750.700012,434.144592 752.232605,439.596222 756.312439,445.241486 
	C780.214111,404.603149 802.273071,364.133514 825.327820,323.371704 
	C788.607544,319.589600 752.866516,315.972931 717.150208,312.127655 
	C713.662598,311.752167 709.319885,312.680298 706.817261,309.543945 
	C702.699280,304.383057 699.588135,298.540741 696.959229,291.092773 
	C730.716858,294.724457 763.500549,298.251373 796.284241,301.778259 
	C796.364563,301.483002 796.444946,301.187744 796.525269,300.892487 
	C720.884033,257.721558 645.242798,214.550629 568.356384,170.669067 
	C576.365906,178.974152 583.277832,186.141098 590.694519,193.803528 
M315.577179,729.880066 
	C373.769623,763.505188 431.962097,797.130249 490.325684,830.854187 
	C491.080933,828.600708 490.043884,827.527954 489.517029,826.395752 
	C473.709167,792.425476 457.512299,758.629883 442.226257,724.427002 
	C437.542419,713.946716 431.733978,708.851379 419.685944,707.701050 
	C396.066895,705.445923 372.661194,700.951111 349.169617,697.367371 
	C321.578430,693.158203 293.988586,688.939941 266.400543,684.710022 
	C253.797958,682.777649 241.201141,680.807617 227.522415,678.687439 
	C257.372467,696.039490 286.160126,712.773987 315.577179,729.880066 
M778.165405,681.887939 
	C747.748840,686.491577 717.336121,691.121216 686.914551,695.691528 
	C656.328796,700.286560 625.736694,704.839355 595.139343,709.356689 
	C592.303589,709.775330 590.391235,710.758240 589.065613,713.626160 
	C577.047607,739.628113 564.855103,765.549500 552.723389,791.498962 
	C546.677551,804.430725 540.651855,817.371948 534.617126,830.308899 
	C534.840332,830.538391 535.063538,830.767822 535.286743,830.997314 
	C622.039246,780.734009 708.791748,730.470764 795.544312,680.207520 
	C795.415894,679.869507 795.287537,679.531433 795.159119,679.193420 
	C789.775024,680.020386 784.390930,680.847290 778.165405,681.887939 
M820.007751,359.427338 
	C807.955200,379.181335 795.969910,398.976807 783.823547,418.672943 
	C777.099304,429.576660 770.116333,440.321014 763.227051,451.122589 
	C761.084229,454.482208 761.046326,457.648499 762.672729,461.445496 
	C780.822815,503.819427 798.778992,546.276428 816.843262,588.687256 
	C820.073975,596.272339 823.559204,603.748901 826.927002,611.275513 
	C827.223938,611.204041 827.520813,611.132568 827.817749,611.061035 
	C827.817749,523.193054 827.817749,435.325012 827.817749,346.662903 
	C825.062256,351.149109 822.713989,354.972382 820.007751,359.427338 
M247.479950,426.956360 
	C230.486725,401.029236 214.984131,374.162689 197.974945,348.107727 
	C198.413452,435.581116 197.844055,522.874268 197.882645,610.867065 
	C200.464020,609.030457 200.939529,607.027466 201.700317,605.282104 
	C205.556305,596.436096 209.306320,587.543884 213.096695,578.669189 
	C229.827759,539.495361 246.534714,500.311157 263.338867,461.168701 
	C264.704681,457.987244 264.750946,455.354980 262.985107,452.260071 
	C258.197601,443.869232 253.139771,435.655640 247.479950,426.956360 
M468.528748,710.309448 
	C464.650574,710.608276 460.660461,709.606079 456.156342,711.224121 
	C474.962280,751.432312 493.601135,791.283386 512.912048,832.571350 
	C532.237000,791.214417 550.910217,751.252319 570.042236,710.308289 
	C535.725647,710.308289 502.622955,710.308289 468.528748,710.309448 
z"/>
<path fill="#000000" opacity="1.000000" stroke="none" 
	d="
M415.454712,597.639404 
	C385.691864,584.022095 359.150757,565.951416 333.432556,546.556458 
	C330.108398,544.049622 326.641632,541.730225 323.343964,539.190247 
	C311.149170,529.797180 297.255280,527.271973 282.309021,528.874573 
	C278.550781,529.277588 278.357880,529.239380 275.115875,527.758850 
	C274.910950,524.826111 277.312622,523.449585 279.014038,521.830566 
	C293.638702,507.914520 309.515900,495.490295 325.497437,483.205292 
	C352.481537,462.462616 380.142029,442.729034 411.165833,428.317841 
	C439.768127,415.031525 469.483337,406.130127 501.271606,404.258606 
	C532.087341,402.444366 561.450134,408.094391 590.264648,418.345673 
	C624.556702,430.545685 654.913940,449.699799 683.977600,471.087311 
	C704.639832,486.292328 724.990845,501.927307 744.180969,518.998108 
	C747.001831,521.507446 749.964966,523.941101 751.572754,527.469910 
	C749.782959,529.728699 747.484497,529.096313 745.404724,529.115906 
	C737.262207,529.192749 729.044128,528.128174 721.011841,530.016296 
	C708.419189,532.976501 698.935669,541.460571 689.002563,548.931396 
	C659.875793,570.838135 629.496826,590.566101 595.339172,603.828369 
	C564.006104,615.993774 531.506714,621.117554 497.950195,619.070801 
	C469.207428,617.317566 441.913940,609.787659 415.454712,597.639404 
M525.688416,573.408386 
	C492.816528,577.313110 464.898285,567.654358 443.911316,541.704651 
	C423.045715,515.905029 419.200348,486.553925 428.749146,454.861542 
	C405.600433,471.121521 383.495575,488.059692 373.269592,516.000916 
	C371.716217,501.103455 378.334717,488.602264 384.664185,475.933105 
	C367.455383,487.104614 351.257080,499.217865 335.390320,512.066528 
	C336.175262,512.965576 336.528076,513.565491 337.045624,513.934265 
	C360.504028,530.651123 383.147675,548.536255 408.681824,562.224182 
	C437.625031,577.739563 467.865509,588.794678 500.950684,590.638916 
	C537.393982,592.670227 571.651245,584.371338 604.328003,568.566406 
	C634.378113,554.031860 661.002319,534.278381 687.535889,514.367981 
	C688.315125,513.783203 689.193237,513.204346 689.325500,511.222778 
	C673.979187,499.118683 657.863281,487.288269 640.741577,475.369568 
	C647.473938,488.763428 654.018066,501.302124 651.917297,516.152344 
	C642.846130,487.948456 620.262512,472.049744 598.524475,455.388550 
	C609.078308,516.262390 589.641296,558.061462 525.688416,573.408386 
M537.549683,541.049500 
	C560.216492,529.884216 573.326233,508.318451 571.557983,483.710266 
	C570.554993,469.752380 565.550720,457.332031 554.094666,448.412964 
	C554.989136,451.487000 556.533325,454.246338 557.753662,457.142090 
	C565.372986,475.221954 564.830688,492.923431 554.083740,509.568420 
	C543.143005,526.513489 520.673767,534.853943 501.711395,530.593750 
	C477.941101,525.253357 464.324890,505.736206 461.633209,486.038391 
	C461.207214,482.921021 461.358307,479.457947 458.460327,477.242676 
	C456.794952,478.055756 456.569855,479.311920 456.284882,480.664246 
	C453.584351,493.480560 456.105133,505.535034 462.130585,516.831848 
	C474.295105,539.638123 506.266052,555.253601 537.549683,541.049500 
M471.055939,442.555573 
	C465.924713,448.148529 464.276398,454.525085 466.610168,461.856323 
	C469.534088,471.041656 479.506958,476.582001 488.749176,474.099670 
	C499.860626,471.115265 505.984772,462.101013 503.788757,451.962646 
	C500.510864,436.829712 484.426575,431.888245 471.055939,442.555573 
z"/>
<path fill="#000000" opacity="1.000000" stroke="none" 
	d="
M507.055298,362.670044 
	C556.675293,362.180847 601.176392,376.777039 642.312256,403.179718 
	C670.238159,421.103668 694.225281,443.199554 715.236572,468.704742 
	C717.411865,471.345276 719.850159,473.874695 721.001953,477.846100 
	C717.647522,477.805115 715.944885,475.611542 714.009460,474.055603 
	C693.877380,457.871307 673.508972,442.014618 651.344116,428.640839 
	C619.683533,409.537598 586.017639,395.668396 549.335693,389.719360 
	C522.666931,385.394318 496.117950,385.637115 469.516235,390.802429 
	C422.210510,399.987885 380.749542,421.493622 342.588715,450.100128 
	C331.931519,458.089081 321.594666,466.504364 311.037628,474.628906 
	C309.409393,475.881989 308.027557,477.808136 305.550140,477.725983 
	C308.236023,465.273682 353.607391,419.629944 392.557861,397.172241 
	C427.917816,376.784790 465.559021,364.253021 507.055298,362.670044 
z"/>
<path fill="#000000" opacity="1.000000" stroke="none" 
	d="
M358.131653,320.766205 
	C365.474579,318.943176 369.020142,320.475830 371.974731,327.022308 
	C373.861542,331.202911 376.864532,334.562103 379.488434,338.178131 
	C387.113678,348.686462 394.970581,359.026917 402.769287,369.408691 
	C403.642639,370.571320 404.330719,372.017242 405.992981,372.347321 
	C423.761505,360.611847 441.410492,348.721558 459.305756,337.214294 
	C472.324646,328.842621 485.681396,320.997162 498.857452,312.868439 
	C501.477722,311.251923 504.039612,310.687988 506.812439,312.371338 
	C511.819763,315.411285 512.096558,318.329346 507.365387,321.685974 
	C495.232758,330.293823 481.681549,336.429474 468.628021,343.402863 
	C448.368896,354.225708 427.830566,364.525085 407.511658,375.237976 
	C404.867004,376.632355 403.434143,375.623871 401.880737,374.059357 
	C395.898895,368.034821 389.923248,362.002289 384.045929,355.876221 
	C376.464569,347.973969 369.531097,339.456635 360.247070,333.272369 
	C356.407501,330.714752 355.866974,326.406158 357.429443,321.654999 
	C357.650604,321.177795 357.788879,321.061157 358.131653,320.766205 
z"/>
<path fill="#000000" opacity="1.000000" stroke="none" 
	d="
M777.042603,615.959167 
	C757.037781,597.110901 737.284546,578.514343 717.562988,559.884277 
	C715.875305,558.290100 714.422241,556.450073 712.819214,554.763123 
	C708.652466,550.378174 709.941284,543.213074 715.947144,541.505432 
	C756.760742,579.881714 808.024780,635.335449 808.831604,642.062866 
	C806.297852,643.659729 804.816162,641.627686 803.329590,640.266479 
	C794.615295,632.287109 785.970703,624.231750 777.042603,615.959167 
z"/>
<path fill="#000000" opacity="1.000000" stroke="none" 
	d="
M274.759033,591.783936 
	C258.497345,606.832947 242.540176,621.690857 226.479462,636.435913 
	C223.573746,639.103577 220.829926,642.267944 216.598557,643.256836 
	C215.398148,640.220642 217.395294,638.982910 218.557404,637.562683 
	C237.978287,613.828857 259.632294,592.153564 280.914368,570.139893 
	C289.008484,561.767517 296.763031,553.047546 305.661591,545.469482 
	C306.868195,544.441956 307.593903,542.849670 308.541992,541.518677 
	C315.214264,544.390259 316.805969,549.701294 312.342957,554.781921 
	C300.790497,567.932861 287.449493,579.278809 274.759033,591.783936 
z"/>
<path fill="#000000" opacity="1.000000" stroke="none" 
	d="
M568.066650,637.010986 
	C585.813110,628.372620 603.221069,619.896240 621.158691,611.161865 
	C621.525269,614.585754 619.593506,615.275574 618.209900,616.152344 
	C589.376404,634.424133 560.585938,652.770386 530.846985,669.556946 
	C527.679626,671.344788 524.200378,672.642578 520.758667,673.866272 
	C516.411133,675.411987 514.575195,673.828491 514.679871,669.142273 
	C514.776489,664.816895 517.642700,662.752869 520.955627,660.878906 
	C536.186157,652.263550 552.035828,644.874329 568.066650,637.010986 
z"/>
<path fill="#000000" opacity="1.000000" stroke="none" 
	d="
M459.049683,637.888794 
	C475.259674,645.716492 491.083496,653.484741 506.514557,662.019653 
	C509.612854,663.733337 512.813354,665.418945 510.381500,670.086304 
	C508.393005,673.902832 506.056580,674.980103 501.957947,673.144531 
	C492.664917,668.982483 483.909454,663.855774 475.285400,658.530945 
	C452.644257,644.551331 430.124725,630.374512 407.591980,616.220215 
	C406.131348,615.302612 404.183411,614.745239 403.342407,611.288757 
	C413.751190,614.674561 422.260406,620.253601 431.365051,624.383789 
	C440.598846,628.572693 449.606201,633.260803 459.049683,637.888794 
z"/>
<path fill="#000000" opacity="1.000000" stroke="none" 
	d="
M520.028503,322.988251 
	C517.585693,320.903839 513.122864,320.242371 515.725037,315.793884 
	C517.989380,311.922913 522.703491,310.544769 526.552307,312.834991 
	C538.569275,319.985504 550.610901,327.110382 562.390381,334.640350 
	C579.642212,345.668427 597.026123,356.504395 613.773132,368.306580 
	C615.654541,369.632416 617.440979,371.036987 618.545044,372.914520 
	C617.557617,374.513184 616.595337,373.978180 615.736877,373.521271 
	C585.314392,357.328674 554.134949,342.583984 524.115601,325.621460 
	C522.812927,324.885376 521.589844,324.008240 520.028503,322.988251 
z"/>
<path fill="#000000" opacity="1.000000" stroke="none" 
	d="
M508.748291,239.895233 
	C508.360962,223.770187 508.030609,208.130234 507.595001,192.493195 
	C507.540253,190.528519 506.892242,188.585236 506.590424,186.621078 
	C506.339844,184.990112 505.919250,183.319809 506.055267,181.707535 
	C506.419678,177.387100 510.398071,172.975311 513.527344,173.765137 
	C517.540466,174.778091 519.902710,178.119339 519.319214,182.028214 
	C517.565857,193.775146 518.881714,205.613129 517.739258,217.355225 
	C517.562256,219.173859 517.317810,221.003143 517.353577,222.822617 
	C517.690552,239.978409 516.520020,257.071167 515.261902,274.159882 
	C515.094849,276.429688 514.897583,278.743378 513.219482,280.866730 
	C510.942871,279.507294 510.864136,277.311066 510.741211,275.234985 
	C510.053406,263.618927 509.422974,251.999496 508.748291,239.895233 
z"/>
<path fill="#000000" opacity="1.000000" stroke="none" 
	d="
M419.697021,713.373962 
	C419.608368,717.904297 416.587555,717.903748 413.811096,717.257996 
	C411.424530,716.703003 410.506653,714.630554 411.380096,712.189514 
	C412.223969,709.830994 413.915009,709.437378 416.140625,710.342590 
	C417.558960,710.919434 418.802063,711.630127 419.697021,713.373962 
z"/>
<path fill="#000000" opacity="1.000000" stroke="none" 
	d="
M607.297180,715.555786 
	C606.545227,713.183716 606.963623,711.566223 609.072327,710.751770 
	C610.314453,710.272034 611.655823,709.725830 612.708740,711.067261 
	C613.574646,712.170532 613.927124,713.590454 613.401733,714.835144 
	C612.049988,718.037842 609.891296,717.846008 607.297180,715.555786 
z"/>
<path fill="#000000" opacity="1.000000" stroke="none" 
	d="
M509.910645,801.852783 
	C512.850464,800.273682 515.223328,800.420044 516.060791,803.583496 
	C516.664368,805.863586 515.055542,807.627197 512.851440,807.640869 
	C509.069336,807.664490 508.022186,805.529480 509.910645,801.852783 
z"/>
</svg>